<svg width="50" height="50" viewBox="0 0 50 50" fill="none" xmlns="http://www.w3.org/2000/svg">
<path d="M25 43.75C22.3686 41.5055 19.9295 39.0448 17.7083 36.3937C14.375 32.4125 10.4166 26.4833 10.4166 20.8333C10.4137 14.9324 13.9671 9.61121 19.4189 7.35289C24.8706 5.09458 31.1459 6.34423 35.3166 10.5187C38.0593 13.2492 39.5956 16.9633 39.5834 20.8333C39.5834 26.4833 35.625 32.4125 32.2916 36.3937C30.0704 39.0448 27.6314 41.5055 25 43.75ZM25 10.4166C19.2499 10.4235 14.5902 15.0832 14.5833 20.8333C14.5833 23.2625 15.6812 27.4687 20.9062 33.7208C22.194 35.2584 23.5604 36.7284 25 38.125C26.4396 36.7301 27.8067 35.2622 29.0958 33.7271C34.3187 27.4666 35.4166 23.2604 35.4166 20.8333C35.4097 15.0832 30.7501 10.4235 25 10.4166ZM25 27.0833C21.5482 27.0833 18.75 24.2851 18.75 20.8333C18.75 17.3815 21.5482 14.5833 25 14.5833C28.4517 14.5833 31.25 17.3815 31.25 20.8333C31.25 22.4909 30.5915 24.0806 29.4194 25.2527C28.2473 26.4248 26.6576 27.0833 25 27.0833Z" fill="#2E3A59"/>
</svg>
